# xmcd CD database file
#
# Track frame offsets:
#	150
#	19213
#	31294
#	49324
#	66593
#	88132
#	111916
#	125676
#	150819
#	171072
#	193872
#	219152
#
# Disc length: 3199 seconds
#
# Revision: 3
# Processed by: cddbd v1.5.2PL0 Copyright (c) Steve Scherf et al.
# Submitted via: CDex 1.70beta2
#
DISCID=a60c7d0c
DTITLE=Alexis Cole - Someday My Prince Will Come
DYEAR=2009
DGENRE=Jazz
TTITLE0=For Now For Always [The Parent Trap]
TTITLE1=Home Is Where The Heart Is  [Tale Spin]
TTITLE2=If I Never Knew You [Pocahontas]
TTITLE3=La La Ru [Lady and the Tramp]
TTITLE4=Let Me Be Good To You  [The Adventures of the Great Mouse Detective]
TTITLE5=Love [Robin Hood]
TTITLE6=Once Upon A Dream [Sleeping Beauty]
TTITLE7=Remember When [101 Dalmatians]
TTITLE8=So This Is Love [Cinderella]
TTITLE9=Someday My Prince Will Come  [Snow White and the Seven Dwarfs]
TTITLE10=The Second Star To The Right [Peter Pan]
TTITLE11=When You Wish Upon A Star [Pinocchio]
EXTD=YEAR: 2009
EXTT0=
EXTT1=
EXTT2=
EXTT3=
EXTT4=
EXTT5=
EXTT6=
EXTT7=
EXTT8=
EXTT9=
EXTT10=
EXTT11=
PLAYORDER=
